<svg xmlns="http://www.w3.org/2000/svg" version="1.1" xmlns:xlink="http://www.w3.org/1999/xlink" xmlns:svgjs="http://svgjs.dev/svgjs" viewBox="0 0 7.0744892264879145 8.48802407816976"><g transform="matrix(1,0,0,1,0.6452219081658326,5.904352170003927)"><g><path d=" M 0.8805000000000001 -2.220446049250313e-16 L 0.8805000000000001 0.23399999999999987 L 0.5985 0.23399999999999987 L 0.5985 1.0574999999999999 L 0.3045 1.0574999999999999 L 0.3045 0.23399999999999987 L 0.025500000000000002 0.23399999999999987 L 0.025500000000000002 -2.220446049250313e-16 L 0.8805000000000001 -2.220446049250313e-16 M 1.540505859375 1.0574999999999999 L 1.330505859375 0.6674999999999999 L 1.299005859375 0.6674999999999999 L 1.299005859375 1.0574999999999999 L 1.005005859375 1.0574999999999999 L 1.005005859375 -2.220446049250313e-16 L 1.468505859375 -2.220446049250313e-16 Q 1.596005859375 -2.220446049250313e-16 1.6845058593750002 0.0442499999999999 Q 1.773005859375 0.08849999999999991 1.818005859375 0.16574999999999984 Q 1.863005859375 0.24299999999999988 1.863005859375 0.33899999999999986 Q 1.863005859375 0.44699999999999984 1.803755859375 0.5287499999999998 Q 1.744505859375 0.6104999999999998 1.630505859375 0.6449999999999998 L 1.869005859375 1.0574999999999999 L 1.540505859375 1.0574999999999999 M 1.299005859375 0.4664999999999999 L 1.444505859375 0.4664999999999999 Q 1.504505859375 0.4664999999999999 1.534505859375 0.43799999999999983 Q 1.564505859375 0.40949999999999986 1.564505859375 0.3554999999999998 Q 1.564505859375 0.3044999999999999 1.533755859375 0.2752499999999999 Q 1.503005859375 0.24599999999999989 1.444505859375 0.24599999999999989 L 1.299005859375 0.24599999999999989 L 1.299005859375 0.4664999999999999 M 2.6805219726562504 0.8849999999999999 L 2.3055219726562504 0.8849999999999999 L 2.2485219726562504 1.0574999999999999 L 1.9395219726562503 1.0574999999999999 L 2.32502197265625 -2.220446049250313e-16 L 2.66402197265625 -2.220446049250313e-16 L 3.04802197265625 1.0574999999999999 L 2.7375219726562503 1.0574999999999999 L 2.6805219726562504 0.8849999999999999 M 2.6070219726562502 0.6599999999999999 L 2.4930219726562504 0.31799999999999984 L 2.38052197265625 0.6599999999999999 L 2.6070219726562502 0.6599999999999999 M 4.188029296875 -2.220446049250313e-16 L 3.8235292968750003 1.0574999999999999 L 3.4470292968750003 1.0574999999999999 L 3.081029296875 -2.220446049250313e-16 L 3.3960292968750005 -2.220446049250313e-16 L 3.6360292968750003 0.7634999999999998 L 3.8745292968750005 -2.220446049250313e-16 L 4.188029296875 -2.220446049250313e-16 M 4.588543212890626 0.23549999999999982 L 4.588543212890626 0.4079999999999999 L 4.926043212890626 0.4079999999999999 L 4.926043212890626 0.6315 L 4.588543212890626 0.6315 L 4.588543212890626 0.8219999999999998 L 4.971043212890626 0.8219999999999998 L 4.971043212890626 1.0574999999999999 L 4.294543212890625 1.0574999999999999 L 4.294543212890625 -2.220446049250313e-16 L 4.971043212890626 -2.220446049250313e-16 L 4.971043212890626 0.23549999999999982 L 4.588543212890626 0.23549999999999982 M 5.425503662109375 0.8324999999999999 L 5.754003662109375 0.8324999999999999 L 5.754003662109375 1.0574999999999999 L 5.131503662109375 1.0574999999999999 L 5.131503662109375 -2.220446049250313e-16 L 5.425503662109375 -2.220446049250313e-16 L 5.425503662109375 0.8324999999999999" fill="#231f20" fill-rule="nonzero"></path></g><g><path d=" M 2.061749633789062 1.4066999999999998 L 2.061749633789062 1.9331999999999998 L 1.933499633789062 1.9331999999999998 L 1.933499633789062 1.6174499999999998 L 1.815749633789062 1.9331999999999998 L 1.712249633789062 1.9331999999999998 L 1.593749633789062 1.6166999999999998 L 1.593749633789062 1.9331999999999998 L 1.465499633789062 1.9331999999999998 L 1.465499633789062 1.4066999999999998 L 1.616999633789062 1.4066999999999998 L 1.764749633789062 1.7711999999999999 L 1.910999633789062 1.4066999999999998 L 2.061749633789062 1.4066999999999998 M 2.2875219726562492 1.4066999999999998 L 2.2875219726562492 1.7216999999999998 Q 2.2875219726562492 1.7689499999999998 2.3107719726562492 1.7944499999999999 Q 2.334021972656249 1.8199499999999997 2.3790219726562496 1.8199499999999997 Q 2.4240219726562495 1.8199499999999997 2.4480219726562495 1.7944499999999999 Q 2.4720219726562496 1.7689499999999998 2.4720219726562496 1.7216999999999998 L 2.4720219726562496 1.4066999999999998 L 2.6002719726562495 1.4066999999999998 L 2.6002719726562495 1.7209499999999998 Q 2.6002719726562495 1.7914499999999998 2.5702719726562493 1.8401999999999998 Q 2.5402719726562495 1.88895 2.4896469726562493 1.9136999999999997 Q 2.439021972656249 1.9384499999999998 2.3767719726562495 1.9384499999999998 Q 2.3145219726562494 1.9384499999999998 2.2653969726562493 1.9140749999999997 Q 2.216271972656249 1.8896999999999997 2.1877719726562495 1.8405749999999999 Q 2.1592719726562493 1.7914499999999998 2.1592719726562493 1.7209499999999998 L 2.1592719726562493 1.4066999999999998 L 2.2875219726562492 1.4066999999999998 M 3.168784790039062 1.9331999999999998 L 3.0405347900390622 1.9331999999999998 L 2.826034790039062 1.60845 L 2.826034790039062 1.9331999999999998 L 2.697784790039062 1.9331999999999998 L 2.697784790039062 1.4066999999999998 L 2.826034790039062 1.4066999999999998 L 3.0405347900390622 1.7329499999999998 L 3.0405347900390622 1.4066999999999998 L 3.168784790039062 1.4066999999999998 L 3.168784790039062 1.9331999999999998 M 3.61204541015625 1.4396999999999998 Q 3.67429541015625 1.4726999999999997 3.70842041015625 1.5323249999999997 Q 3.74254541015625 1.5919499999999998 3.74254541015625 1.6699499999999998 Q 3.74254541015625 1.7471999999999999 3.70842041015625 1.8072 Q 3.67429541015625 1.8671999999999997 3.61167041015625 1.9002 Q 3.54904541015625 1.9331999999999998 3.46654541015625 1.9331999999999998 L 3.26929541015625 1.9331999999999998 L 3.26929541015625 1.4066999999999998 L 3.46654541015625 1.4066999999999998 Q 3.54979541015625 1.4066999999999998 3.61204541015625 1.4396999999999998 M 3.57154541015625 1.7824499999999999 Q 3.61204541015625 1.7426999999999997 3.61204541015625 1.6699499999999998 Q 3.61204541015625 1.5971999999999997 3.57154541015625 1.5566999999999998 Q 3.53104541015625 1.5161999999999998 3.45829541015625 1.5161999999999998 L 3.39754541015625 1.5161999999999998 L 3.39754541015625 1.8221999999999998 L 3.45829541015625 1.8221999999999998 Q 3.53104541015625 1.8221999999999998 3.57154541015625 1.7824499999999999 M 3.9349127197265625 1.9039499999999998 Q 3.873037719726563 1.8694499999999998 3.836662719726563 1.8075749999999997 Q 3.8002877197265628 1.7456999999999998 3.8002877197265628 1.6684499999999998 Q 3.8002877197265628 1.5911999999999997 3.836662719726563 1.5296999999999998 Q 3.873037719726563 1.4681999999999997 3.9349127197265625 1.4336999999999998 Q 3.9967877197265627 1.3991999999999998 4.071037719726562 1.3991999999999998 Q 4.1452877197265625 1.3991999999999998 4.207162719726563 1.4336999999999998 Q 4.269037719726563 1.4681999999999997 4.304662719726562 1.5296999999999998 Q 4.340287719726563 1.5911999999999997 4.340287719726563 1.6684499999999998 Q 4.340287719726563 1.7456999999999998 4.304287719726563 1.8075749999999997 Q 4.268287719726563 1.8694499999999998 4.206787719726563 1.9039499999999998 Q 4.1452877197265625 1.9384499999999998 4.071037719726562 1.9384499999999998 Q 3.9967877197265627 1.9384499999999998 3.9349127197265625 1.9039499999999998 M 4.171912719726563 1.7794499999999998 Q 4.209787719726563 1.7374499999999997 4.209787719726563 1.6684499999999998 Q 4.209787719726563 1.5986999999999998 4.171912719726563 1.5570749999999998 Q 4.134037719726563 1.5154499999999997 4.071037719726562 1.5154499999999997 Q 4.007287719726563 1.5154499999999997 3.9694127197265625 1.5566999999999998 Q 3.931537719726563 1.5979499999999998 3.931537719726563 1.6684499999999998 Q 3.931537719726563 1.7381999999999997 3.9694127197265625 1.7798249999999998 Q 4.007287719726563 1.8214499999999998 4.071037719726562 1.8214499999999998 Q 4.134037719726563 1.8214499999999998 4.171912719726563 1.7794499999999998" fill="#393536" fill-rule="nonzero"></path></g><g clip-path="url(#SvgjsClipPath1001)"><g clip-path="url(#be952b66b-44d6-49d1-b2bf-8fe40be0b0c8e1bea3a8-f1c7-4de6-8046-f51cab3ce3c2)"><path d=" M 5.295394242795488 -2.7590877282977053 C 5.295394242795488 -1.4745504928910238 4.254066707441421 -0.43322295753695617 2.969529472034739 -0.43322295753695617 C 1.6849922366280579 -0.43322295753695617 0.6436647012739902 -1.4745504928910238 0.6436647012739902 -2.7590877282977053 C 0.6436647012739902 -4.043624963704387 1.6849922366280579 -5.084961552427276 2.969529472034739 -5.084961552427276 C 4.25406670744142 -5.084961552427276 5.295394242795488 -4.043624963704387 5.295394242795488 -2.7590877282977053" fill="#00adef" transform="matrix(1,0,0,1,0,0)" fill-rule="nonzero"></path></g><g clip-path="url(#be952b66b-44d6-49d1-b2bf-8fe40be0b0c8e1bea3a8-f1c7-4de6-8046-f51cab3ce3c2)"><path d=" M 4.840906074527871 -3.8638612723611505 C 4.955612257511293 -3.752848863857385 4.953493769206784 -3.598624725962944 4.879002650533731 -3.4509009068831906 C 4.865129499519818 -3.489492923474191 4.850133763589802 -3.5276721214953284 4.834034567591453 -3.565389809014868 C 4.863439909527535 -3.65394080946955 4.877237243613307 -3.7539262147472847 4.840906074527871 -3.8638612723611505" fill="#e9e9e9" transform="matrix(1,0,0,1,0,0)" fill-rule="nonzero"></path></g><g clip-path="url(#be952b66b-44d6-49d1-b2bf-8fe40be0b0c8e1bea3a8-f1c7-4de6-8046-f51cab3ce3c2)"><path d=" M 3.9118222058374545 -3.3659078803758224 C 3.9087169003312736 -3.3835981630553493 3.918775193093277 -3.404085936701086 3.915045205138331 -3.4215136716847545 C 3.9166114379446553 -3.4222288878217464 3.9180780836939304 -3.423052744384611 3.9196352631314317 -3.423777013890426 C 3.9196352631314317 -3.423777013890426 4.012133532392806 -3.1099691437585135 4.243112131165972 -3.096443410737422 C 4.476906327642993 -3.0826551300204725 4.703349188635994 -3.288646430843028 4.76122737551942 -3.410233174131689 C 4.784675600770174 -3.4593567533635783 4.8263392040921715 -3.545943172783739 4.84619324192032 -3.6062023956675313 C 4.862290131687054 -3.568522274627516 4.892854304832439 -3.5101642591964874 4.878993597164909 -3.4509009068831906 C 4.736049956823532 -3.167231701561997 4.326611351817597 -2.9073728562444656 3.967418943777564 -3.0223778003990347 L 3.9398152222371974 -3.0252839317911167 C 3.9373617592862495 -3.143140687124832 3.932454833384354 -3.2539629748833208 3.9118222058374545 -3.3659078803758224" fill="#e9e9e9" transform="matrix(1,0,0,1,0,0)" fill-rule="nonzero"></path></g><g clip-path="url(#be952b66b-44d6-49d1-b2bf-8fe40be0b0c8e1bea3a8-f1c7-4de6-8046-f51cab3ce3c2)"><path d=" M 4.840906074527871 -3.8638612723611505 C 4.877237243613307 -3.7539262147472847 4.868699916813515 -3.637210183885228 4.839294574877433 -3.5486682367993674 C 4.781443548100476 -3.6850662914819416 4.705196075875821 -3.831486425451228 4.622565978631174 -3.9527472474622734 C 4.683522310914313 -3.9703017296094596 4.752816795883145 -3.9491168465643764 4.840906074527871 -3.8638612723611505" fill="#ffffff" transform="matrix(1,0,0,1,0,0)" fill-rule="nonzero"></path></g><g clip-path="url(#be952b66b-44d6-49d1-b2bf-8fe40be0b0c8e1bea3a8-f1c7-4de6-8046-f51cab3ce3c2)"><path d=" M 4.845034410711016 -3.563054039858614 C 4.825180372882868 -3.5027948169748218 4.787065690139364 -3.4502581176967797 4.763626518257431 -3.4011345384648903 C 4.705748331374005 -3.279547795176229 4.464629959519432 -3.071302205516825 4.230826709673589 -3.0850904862337747 C 3.9998571642692453 -3.0986162192548665 3.919644316500255 -3.423777013890426 3.919644316500255 -3.423777013890426 C 4.312026374644251 -3.413184572367884 4.421282429596417 -3.894678939833571 4.622575031999998 -3.9527472474622734 C 4.731885407165097 -3.881216580394238 4.8043123577465785 -3.8050958553331014 4.845034410711016 -3.563054039858614" fill="#ffffff" transform="matrix(1,0,0,1,0,0)" fill-rule="nonzero"></path></g><g clip-path="url(#be952b66b-44d6-49d1-b2bf-8fe40be0b0c8e1bea3a8-f1c7-4de6-8046-f51cab3ce3c2)"><path d=" M 2.611622642367528 -1.2515931788947574 C 2.538580062706105 -1.2488137946661935 2.4654107358811634 -1.2522178613435226 2.392712184235002 -1.262076979991427 C 2.1828460415563375 -1.2902420103988002 1.977932091623682 -1.3716499028523854 1.7974803442499216 -1.5107277547064748 C 1.7619458716208825 -1.5381323021327424 1.7091828381222736 -1.5503905635186581 1.6756401066342252 -1.5823217953562687 C 1.6432380996178353 -1.6129765021898805 1.6021539119004897 -1.6429793664682593 1.6043900939996931 -1.6913424627190432 C 1.511122288388391 -1.7951212295334829 1.4470968640743616 -1.8970712158457403 1.407750923170972 -1.9969570340664253 C 1.1694300422826083 -2.6015772175206298 1.8336213925900808 -3.130909585845384 2.389516345040594 -3.5367811635351822 C 2.414367842458865 -3.5549512747623115 2.414213935188879 -3.5803459743099433 2.4385312838466113 -3.598045310358293 C 2.5087401590665346 -3.648961456617074 2.6013018019096674 -3.690380618980859 2.664168395014393 -3.736978308311219 C 2.664168395014393 -3.736978308311219 2.703450962336024 -3.7503591874311475 2.718886956178702 -3.7356927299383975 L 2.677965729100165 -3.6997236956058694 C 2.677965729100165 -3.6997236956058694 1.4886608803393087 -2.7718167648624013 1.4999413778923747 -2.2508225492233396 C 1.5113305158713124 -1.7299279206413272 2.044809327116857 -1.4982703192064597 2.2968098482962978 -1.4139834554672612 C 2.6208751853043126 -1.3054969368650253 3.0549661136144195 -1.3724103858334908 3.356117374132218 -1.5825752896833039 C 3.6492473498731175 -1.7871452116006972 3.994198808755067 -2.381453607965863 3.9010215368319914 -3.348253811171587 L 3.8976808437364205 -3.362014931782068 L 3.925411312440305 -3.3688773853496636 C 3.946034886618382 -3.2569415332259846 3.9568536623614907 -3.140008221512183 3.9593161786812607 -3.0221514661784683 C 3.9684057609792367 -2.5824655559359417 3.860045989540518 -2.129960075440493 3.6976376062303693 -1.8784122227021864 C 3.5538429492196615 -1.6557265097706 3.357230938497408 -1.4881848663379889 3.136736140820912 -1.3824686785954943 C 2.97111381157871 -1.302961993594673 2.792083443110111 -1.2584646858311759 2.611622642367528 -1.2515931788947574" fill="#e9e9e9" transform="matrix(1,0,0,1,0,0)" fill-rule="nonzero"></path></g><g clip-path="url(#be952b66b-44d6-49d1-b2bf-8fe40be0b0c8e1bea3a8-f1c7-4de6-8046-f51cab3ce3c2)"><path d=" M 3.9500636357444767 -3.4917134935358547 C 3.9484883495693293 -3.4615476686186684 3.933523130905431 -3.4309472819979923 3.9149003512371676 -3.4222288878217464 C 3.9149818315565716 -3.422020660338825 3.9149637248189264 -3.421721899167676 3.915054258507153 -3.421513671684754 C 3.7607758003997755 -3.345392946623618 3.6232822880896567 -3.3137242624818652 3.5011342359339888 -3.3122214032572996 C 3.4156523275101955 -3.3111983725803364 3.33761228825865 -3.324805585920832 3.266624823319975 -3.348226651065118 C 3.196243934092421 -3.3990251035292047 3.116710088985132 -3.4165705323075684 3.116710088985132 -3.4165705323075684 L 3.1166105019280823 -3.416579585676391 C 3.070728028734714 -3.4434771444485888 3.0286027036027603 -3.4738964636928107 2.9900896726310577 -3.505719055104549 L 2.9899900855740085 -3.505719055104549 C 2.8751299953206018 -3.6003448660392543 2.7918571088895443 -3.7071746181469387 2.734359163496671 -3.770584413381026 C 2.7291353696859812 -3.7729201825372782 2.7241379100958594 -3.775536606127034 2.7193486779886586 -3.7784608442567613 C 2.7009341258033173 -3.804444012777868 2.711553727432327 -3.848950373910188 2.735735275557719 -3.886395107360814 C 2.735735275557719 -3.886395107360814 2.9557864581619038 -3.8301917937095844 2.990153046212817 -3.654293890853635 C 3.02442004720668 -3.478495575054735 3.290100208677198 -3.37729701835476 3.468035119518252 -3.365391838352929 C 3.6458704433022557 -3.3534866583510983 3.933206262996637 -3.492410602935202 3.933206262996637 -3.492410602935202 Z" fill="#bf1b2c" transform="matrix(1,0,0,1,0,0)" fill-rule="nonzero"></path></g><g clip-path="url(#be952b66b-44d6-49d1-b2bf-8fe40be0b0c8e1bea3a8-f1c7-4de6-8046-f51cab3ce3c2)"><path d=" M 3.9500636357444767 -3.4917134935358547 L 3.933206262996637 -3.492410602935202 C 3.933206262996637 -3.492410602935202 3.6458704433022557 -3.3534866583510983 3.4680351195182517 -3.365391838352929 C 3.290100208677198 -3.37729701835476 3.0244200472066796 -3.478495575054735 2.990153046212817 -3.654293890853635 C 2.9557864581619033 -3.8301917937095844 2.735735275557719 -3.886395107360814 2.735735275557719 -3.886395107360814 C 2.76547559214024 -3.9326125552006213 2.8159390699578863 -3.967993120559675 2.8585985438503787 -3.9447350160541967 L 2.858571383743911 -3.942507887323816 C 3.11808620104618 -3.7128329736611168 3.411931392924072 -3.4918764541746636 3.919924970933758 -3.553919190716525 C 3.9432192889145266 -3.5422131848287925 3.9513582674861203 -3.517044819501728 3.9500636357444767 -3.4917134935358547" fill="#ec008c" transform="matrix(1,0,0,1,0,0)" fill-rule="nonzero"></path></g><g clip-path="url(#be952b66b-44d6-49d1-b2bf-8fe40be0b0c8e1bea3a8-f1c7-4de6-8046-f51cab3ce3c2)"><path d=" M 3.9254022590714825 -3.368886438718486 L 3.9048239517375194 -3.3529887230658506 L 3.572366141830875 -3.275998874597736 C 3.572366141830875 -3.275998874597736 3.6348524934450483 -2.9041498569435897 3.4837155543191423 -2.5038642078173887 C 3.456365327105811 -2.4312924033347447 3.434012559482601 -2.362079398685317 3.411388190794711 -2.311398640015925 L 3.3902938414378547 -2.320216621249221 C 3.3962237980167136 -2.3366665924000394 3.6577665699352644 -3.0662594790825897 3.501125182565166 -3.3122304566261223 C 3.623273234720834 -3.313733315850688 3.760766747030953 -3.345392946623618 3.915045205138331 -3.421522725053577 C 3.918775193093277 -3.4040949900699085 3.9222969535653016 -3.3865767213980127 3.9254022590714825 -3.368886438718486" fill="#e9e9e9" transform="matrix(1,0,0,1,0,0)" fill-rule="nonzero"></path></g><g clip-path="url(#be952b66b-44d6-49d1-b2bf-8fe40be0b0c8e1bea3a8-f1c7-4de6-8046-f51cab3ce3c2)"><path d=" M 3.914049334567835 -4.056670868177877 C 3.9380769754232414 -4.065878144270547 3.9655901632753814 -4.099629103241517 3.943327929340399 -4.161463612300457 C 3.9213282431012737 -4.222673438910631 3.834841410738163 -4.18012260544401 3.834841410738163 -4.18012260544401 C 3.8259238424478177 -4.197052405142432 3.808496107464149 -4.213955044734385 3.838670985750159 -4.242382622837616 C 4.020127657063236 -4.27995410345176 4.066100663944832 -4.045173089773066 3.9162040363476343 -4.026278709040122 C 3.8801354149580565 -4.019144654407846 3.862780106924969 -4.027980742378787 3.8604986579816525 -4.037323819003798 Z" fill="#ffffff" transform="matrix(1,0,0,1,0,0)" fill-rule="nonzero"></path></g><g clip-path="url(#be952b66b-44d6-49d1-b2bf-8fe40be0b0c8e1bea3a8-f1c7-4de6-8046-f51cab3ce3c2)"><path d=" M 3.963218180643838 -4.1626858170915195 C 3.9854804145788205 -4.1008513080325795 3.938076975423241 -4.065896251008192 3.914049334567835 -4.056688974915522 L 3.8756721041284723 -4.042683413346827 C 3.8552386506956724 -4.127087970880721 3.8672162576480846 -4.192634361156961 3.8672162576480846 -4.192634361156961 C 3.8672162576480846 -4.192634361156961 3.941218494404713 -4.2238956437016935 3.963218180643838 -4.1626858170915195" fill="#e9e9e9" transform="matrix(1,0,0,1,0,0)" fill-rule="nonzero"></path></g><g clip-path="url(#be952b66b-44d6-49d1-b2bf-8fe40be0b0c8e1bea3a8-f1c7-4de6-8046-f51cab3ce3c2)"><path d=" M 3.941354294937054 -3.857197992907654 C 3.9486150967328473 -3.76395734740282 3.945373990694326 -3.65930040381258 3.9199340243025804 -3.553919190716525 C 3.411931392924072 -3.4918764541746636 3.1180862010461805 -3.71284202702994 2.858571383743911 -3.9425078873238166 L 2.858598543850379 -3.9447350160541967 C 2.89349928066183 -4.054208351858106 2.961870322010748 -4.165057799723063 3.0474699242292362 -4.255546221105801 C 3.006947045378898 -4.1295052203563785 3.035320303269193 -4.0328514548053915 3.0684465797913982 -3.9526657671428693 C 3.1154788308252472 -3.838855867672894 3.2012051802072525 -3.752939397545612 3.3968213203590105 -3.6855370666607215 C 3.6266501412916954 -3.606301982724581 3.696623628922229 -3.645620763521503 3.775351724204299 -3.676203043404533 C 3.9187027661426956 -3.731817888082288 3.9377963209897384 -3.8569082851053285 3.9377963209897384 -3.8569082851053285 Z" fill="#e9e9e9" transform="matrix(1,0,0,1,0,0)" fill-rule="nonzero"></path></g><g clip-path="url(#be952b66b-44d6-49d1-b2bf-8fe40be0b0c8e1bea3a8-f1c7-4de6-8046-f51cab3ce3c2)"><path d=" M 3.162637829022614 -4.38592378552129 C 3.1971583243435124 -4.410005746589632 3.230501881717462 -4.4258581953981535 3.266751570483493 -4.441429989773172 C 3.2823324182273343 -4.448201909652541 3.308895002353092 -4.435771634258994 3.3245663837851605 -4.440624239947953 C 3.3365770563489496 -4.444418456580189 3.348757991707901 -4.447650996469594 3.361069566878227 -4.4503113445882265 C 3.3666011752288876 -4.4515969229610475 3.3720331965224988 -4.452601846900365 3.3775557515043366 -4.453588664102038 C 3.5479129926408026 -4.483012112775765 3.672188586469802 -4.429633450197214 3.761816937814385 -4.33973349778795 C 3.790968785423431 -4.310581650178904 3.8163544316022397 -4.277609280926685 3.838670985750159 -4.24239167620644 C 3.8488113205889265 -4.2261742113301 3.8583302928370595 -4.209576409465971 3.8672072042792633 -4.192634361156959 C 3.876084115721468 -4.175692312847948 3.8889986630354656 -4.139925647871289 3.909423063099443 -4.055530143706218 C 3.9117045120427596 -4.046187067081207 3.913967854248431 -4.036436588859175 3.9162040363476343 -4.026287762408945 C 3.92687795818958 -3.9773814640287997 3.9364473690351582 -3.919838251791813 3.941345241568231 -3.857197992907655 L 3.9377963209897384 -3.856899231736506 C 3.9377963209897384 -3.856899231736506 3.94569085860312 -3.7059343066182313 3.8023307632959007 -3.6503194619404766 C 3.723611721382653 -3.619746235426269 3.614201759160504 -3.587126947558134 3.384363884858996 -3.6663710848630973 C 3.1887567980760605 -3.7337734157479883 3.0807591613902496 -3.8263712720664116 3.0337269103564006 -3.940181171536387 C 3.0006006338341953 -4.020366859198909 3.006937992010075 -4.1295052203563785 3.0474699242292362 -4.255546221105801 C 3.0731633849480167 -4.282778754524438 3.100260117834314 -4.308101027121488 3.128633375724609 -4.330924569923477 C 3.1425574569738983 -4.342349921377706 3.148179599012786 -4.375847386021641 3.162637829022614 -4.38592378552129 M 3.76085728071918 -4.232505397452067 C 3.761722487705948 -4.238027737160676 3.7603507674251393 -4.243667168538127 3.7570458074474917 -4.2481751679318025 C 3.7537408474698437 -4.252683167325479 3.748775293527178 -4.255687843153622 3.7432484783590576 -4.256523984938651 C 3.737752203418302 -4.257389241989392 3.7321378126047113 -4.256026675148827 3.7276495989974423 -4.252738264194618 C 3.7231613853901737 -4.249449853240409 3.7201700434444334 -4.24450719747995 3.719338531298346 -4.239005716266755 C 3.7184500768411954 -4.233512374423293 3.719787590106489 -4.2278914599133035 3.7230550442578556 -4.223387028839319 C 3.726322498409222 -4.218882597765335 3.731250430462316 -4.215866125099533 3.7367481595443692 -4.2150052355178165 C 3.7482380019319614 -4.213181239475182 3.759031375007605 -4.22101585838439 3.76085728071918 -4.232505397452067 M 3.7088547302016766 -4.108972179866528 C 3.730836309703156 -4.205444878041061 3.4303731052158812 -4.323048139047741 3.3262412570173576 -4.215131982681334 C 3.2092717318282653 -4.093898320776757 3.6587896006122276 -3.947994228830364 3.7088547302016766 -4.108972179866528 M 3.412619448954596 -4.32570982948161 C 3.413486257429509 -4.331216245544452 3.412127698652778 -4.336841338048624 3.4088432438048764 -4.341345151004486 C 3.405558788956974 -4.345848963960347 3.4006180877145766 -4.348861739900191 3.395110233651523 -4.349719363599371 C 3.389616891808061 -4.350607818056522 3.383995977298072 -4.3492703047912284 3.379491546224087 -4.346002850639862 C 3.3749871151501027 -4.342735396488496 3.371970642484301 -4.337807464435401 3.3711097529025844 -4.332309735353348 C 3.370204531898235 -4.326803064410805 3.3715318490260375 -4.321162715614269 3.3747977975694075 -4.316637626659538 C 3.3780637461127774 -4.312112537704807 3.3829988480049753 -4.309076080127636 3.3885103277797852 -4.308200614178538 C 3.394031092997753 -4.3073123748573945 3.399678253410828 -4.308660267742592 3.40420271733578 -4.3119461532968 C 3.408727181260731 -4.315232038851009 3.411756078385395 -4.320185120535088 3.412619448954596 -4.32570982948161" fill="#ffffff" transform="matrix(1,0,0,1,0,0)" fill-rule="nonzero"></path></g><g clip-path="url(#be952b66b-44d6-49d1-b2bf-8fe40be0b0c8e1bea3a8-f1c7-4de6-8046-f51cab3ce3c2)"><path d=" M 3.908327605471898 -3.3144847454629707 C 4.001504877394973 -2.347684542257247 3.649238296504295 -1.7871452116006963 3.356117374132218 -1.5825752896833034 C 3.0549661136144195 -1.37241038583349 2.603945385605891 -1.288367963052504 2.279889101966699 -1.3968454282859177 C 2.027888580787258 -1.4811413453939388 1.4933867388647502 -1.7193354791187851 1.4819976008858122 -2.2402301077007976 C 1.470726156701569 -2.7612243233398592 2.6578310368385125 -3.7015705828456964 2.6578310368385125 -3.7015705828456964 L 2.7044920997506314 -3.7356927299383966 C 2.759590902405493 -3.6830473902344827 2.901330444693452 -3.534879956082418 2.943627783833037 -3.5210554618901773 C 2.916820758749066 -3.4937957683650724 2.630987798279251 -3.5140391010525964 2.445140243087171 -3.20648710877716 C 2.3065060063053933 -2.9769117821715096 2.308932309149873 -2.8199263667861496 2.3275188753428453 -2.4350404980273357 C 2.3512387016582803 -2.4734177284666985 2.3872077359908084 -2.5584922352934703 2.3872077359908084 -2.5584922352934703 L 2.4257026602248652 -2.456035260327143 L 2.4735316077151115 -2.5595605328145474 L 2.501524624114854 -2.451562896128736 L 2.554459671621094 -2.5357863862861763 L 2.580850241739221 -2.436208382605462 L 2.6659971755165746 -2.560628830335624 L 2.7243280308411353 -2.45049459860766 L 2.721023551220855 -2.5616971278567013 L 2.7698212091751278 -2.5242705011437208 L 2.80475815946187 -2.5066526454147753 L 2.8048486931500967 -2.506553058357726 L 2.8409806881214332 -2.493362299983074 L 2.6228397663388345 -2.145749150667255 L 2.683596924507875 -2.182098426490336 L 2.819397456848152 -2.2590882749584504 L 2.821534051890306 -2.1574098897108738 L 2.832814549443371 -2.09792020317701 L 2.9402237171557077 -2.262392754578731 L 2.987953077588904 -2.10024691896444 L 3.0602804411133357 -2.2558833823952202 L 3.081275203413142 -2.0967523185988837 L 3.163706126543691 -2.2285693686571793 L 3.182763467915443 -2.0708958972412947 L 3.247114813507089 -2.2099013221448023 L 3.2515871777054954 -2.075169087325602 C 3.2515871777054954 -2.075169087325602 3.2912499865176787 -2.1093908214753516 3.4067347592198507 -2.326454392368051 C 3.4293500745389176 -2.3771351510374426 3.44901399162179 -2.426666131866353 3.476364218835122 -2.499237936348997 C 3.627501157961028 -2.899523585475198 3.564516871061607 -3.280045730461477 3.564516871061607 -3.280045730461477 L 3.903665120528215 -3.365907880375822 Z" fill="#ffffff" transform="matrix(1,0,0,1,0,0)" fill-rule="nonzero"></path></g><g clip-path="url(#be952b66b-44d6-49d1-b2bf-8fe40be0b0c8e1bea3a8-f1c7-4de6-8046-f51cab3ce3c2)"><path d=" M 3.9301100108592784 -5.259130261838093 C 3.9407205591194656 -5.16619743087323 3.9830088448902274 -5.138304001530537 3.9197891704014176 -5.084137695864412 C 3.8566690829696566 -5.029862749772414 3.740822175514577 -5.068276193687068 3.740822175514577 -5.068276193687068 C 3.734339963437535 -5.117942975048319 3.7417094056592006 -5.172471415467351 3.7417094056592006 -5.172471415467351 L 3.814543757837703 -5.141047172283811 L 3.8212704108729576 -5.227488737802809 L 3.882308223475501 -5.164178529625771 Z" fill="#ec008c" transform="matrix(1,0,0,1,0,0)" fill-rule="nonzero"></path></g><g clip-path="url(#be952b66b-44d6-49d1-b2bf-8fe40be0b0c8e1bea3a8-f1c7-4de6-8046-f51cab3ce3c2)"><path d=" M 3.88372054901184 -4.987375289887554 C 3.8822539032625647 -4.986551433324689 3.8807963108821126 -4.9858271638188745 3.87933871850166 -4.98510289431306 C 3.87933871850166 -4.98510289431306 3.849535028337381 -4.97057223735265 3.7846314272475508 -4.990688822876657 C 3.757398893828914 -4.999180882832335 3.745493713827083 -5.032470119993349 3.740822175514577 -5.0682671403182455 C 3.740822175514577 -5.0682671403182455 3.8566690829696566 -5.029862749772415 3.9197891704014176 -5.08412864249559 C 3.9829997915214053 -5.1382949481617155 3.9407205591194656 -5.166197430873231 3.9301100108592784 -5.259130261838094 C 3.9301100108592784 -5.259130261838094 4.046328106436087 -5.070802083588598 3.88372054901184 -4.987375289887554" fill="#bf1b2c" transform="matrix(1,0,0,1,0,0)" fill-rule="nonzero"></path></g><g clip-path="url(#be952b66b-44d6-49d1-b2bf-8fe40be0b0c8e1bea3a8-f1c7-4de6-8046-f51cab3ce3c2)"><path d=" M 3.7432484783590576 -4.25652398493865 C 3.7487751207600732 -4.255689900055343 3.7537413974081932 -4.252687446465419 3.757047989778441 -4.2481812373359755 C 3.7603545821486897 -4.243675028206532 3.761728757914972 -4.238036741918246 3.760866334088003 -4.232514450820889 C 3.7590311631199174 -4.221025597398896 3.748240465388862 -4.213191810082132 3.7367481595443692 -4.2150052355178165 C 3.731252088853638 -4.215868271911335 3.726326412601483 -4.218885648036457 3.723060838542836 -4.223389829529419 C 3.7197952644841887 -4.227894011022382 3.7184589703743662 -4.233513723050018 3.719347584667169 -4.239005716266755 C 3.720176911925289 -4.244506466922175 3.723166384870813 -4.249449098489508 3.7276531589718664 -4.252737699961303 C 3.7321399330729195 -4.2560263014330975 3.737753245731918 -4.25738912067817 3.7432484783590576 -4.25652398493865" fill="#231f20" transform="matrix(1,0,0,1,0,0)" fill-rule="nonzero"></path></g><g clip-path="url(#be952b66b-44d6-49d1-b2bf-8fe40be0b0c8e1bea3a8-f1c7-4de6-8046-f51cab3ce3c2)"><path d=" M 3.7196191857318492 -4.557801992619966 C 3.765393018499345 -4.508542612855736 3.788089814137817 -4.433426811733917 3.761816937814385 -4.3397334977879485 C 3.672179533100979 -4.429633450197213 3.5479129926408026 -4.483012112775764 3.3775557515043366 -4.453588664102037 C 3.3720331965224988 -4.4526018469003645 3.3666011752288876 -4.451596922961047 3.361069566878227 -4.450311344588226 C 3.363115628232154 -4.457671733441068 3.3653608637001793 -4.46472430775394 3.367886753601709 -4.471559601215067 L 3.3892345972856 -4.4834285677416075 C 3.4526262857820416 -4.530497032250747 3.4920808671113033 -4.538626957453519 3.5460298919256843 -4.511258623502542 C 3.599870276314193 -4.483790702494515 3.634019583513361 -4.465358043571528 3.669191921389493 -4.4834285677416075 C 3.703630936390987 -4.501127903789957 3.737798350327801 -4.533149669315795 3.7196191857318492 -4.557801992619966" fill="#bf1b2c" transform="matrix(1,0,0,1,0,0)" fill-rule="nonzero"></path></g><g clip-path="url(#be952b66b-44d6-49d1-b2bf-8fe40be0b0c8e1bea3a8-f1c7-4de6-8046-f51cab3ce3c2)"><path d=" M 3.3152052004225037 -4.225181222074514 C 3.419337048621028 -4.333106431809744 3.75354215871045 -4.199333854085748 3.731560579208971 -4.102861155911215 C 3.6366269537342943 -3.8746619413666137 3.1982447286022344 -4.103947560169938 3.3152052004225037 -4.225181222074514 M 3.66220272065838 -4.0996381566103395 C 3.669816603838258 -4.1122132859050495 3.619869168043504 -4.186143095711095 3.525714132287579 -4.209292559790702 C 3.442812433978251 -4.229671693010566 3.4040730687859813 -4.2332296669578815 3.38690788149817 -4.208124675212575 C 3.3562169611892676 -4.163174699007944 3.419155981244575 -4.13217596415907 3.5047193699877717 -4.105468526132149 C 3.5901831716739196 -4.078670554417001 3.6387635487764483 -4.0610436453192325 3.66220272065838 -4.0996381566103395" fill="#231f20" transform="matrix(1,0,0,1,0,0)" fill-rule="nonzero"></path></g><g clip-path="url(#be952b66b-44d6-49d1-b2bf-8fe40be0b0c8e1bea3a8-f1c7-4de6-8046-f51cab3ce3c2)"><path d=" M 3.5970546786103372 -4.62120273448523 C 3.6395149783887306 -4.615263724537549 3.6798930033379067 -4.596278810116378 3.71122671283322 -4.566294052575645 C 3.7113172465214466 -4.566185412149773 3.7114168335784963 -4.56617635878095 3.711507367266723 -4.566076771723901 C 3.7142867514952873 -4.563378867814741 3.716966548666802 -4.560690017274403 3.7196282391006714 -4.557801992619966 C 3.737807403696623 -4.533149669315795 3.717455430583227 -4.498719707683123 3.683016415581733 -4.481020371634774 C 3.647844077705601 -4.462949847464694 3.603573104162671 -4.469658393762304 3.549732719774162 -4.497135368139153 C 3.495774641590959 -4.524503702090131 3.4424050323812296 -4.514843757556326 3.379004290515966 -4.467775293047185 L 3.3678958069705307 -4.471568654583891 C 3.4101026124218894 -4.590131572685776 3.5080329029768746 -4.634040411475798 3.5970546786103372 -4.62120273448523" fill="#ec008c" transform="matrix(1,0,0,1,0,0)" fill-rule="nonzero"></path></g><g clip-path="url(#be952b66b-44d6-49d1-b2bf-8fe40be0b0c8e1bea3a8-f1c7-4de6-8046-f51cab3ce3c2)"><path d=" M 3.7196191857318492 -4.557801992619966 C 3.71695749529798 -4.5606900172744025 3.714277698126465 -4.56337886781474 3.7115073672667234 -4.566076771723901 C 3.7147846867805354 -4.563451294765321 3.71746448395205 -4.560662857167935 3.7196191857318492 -4.557801992619966" fill="#00adef" transform="matrix(1,0,0,1,0,0)" fill-rule="nonzero"></path></g><g clip-path="url(#be952b66b-44d6-49d1-b2bf-8fe40be0b0c8e1bea3a8-f1c7-4de6-8046-f51cab3ce3c2)"><path d=" M 3.480248114060054 -0.5553529029549793 C 3.4818143468663783 -0.504654037547942 3.457786706010972 -0.4525337932357445 3.395309407765622 -0.397009482246216 C 3.1208203184306313 -0.15328374017070967 2.80964697862612 -0.24339192006289423 2.605991446959818 -0.4438606659036122 C 2.6063462453778157 -0.44373566208065096 2.6067291903233842 -0.44371368982967585 2.6070959579561857 -0.44379729232185294 C 2.6074627255889866 -0.44388089481403004 2.6070959579561857 -0.4436886518959806 2.607204598382058 -0.4437882389530303 C 2.6148546950372267 -0.44313639639779634 2.6224142580041687 -0.4426927813254853 2.6300824613969835 -0.4422401128843507 C 2.7438561473916674 -0.4355315665867412 2.79494430765808 -0.48757938394835776 2.9051419129678027 -0.4974747160715527 C 2.9479462407614583 -0.4905036220780854 3.0175575936390846 -0.4763079397641157 3.0439481637572117 -0.47414418461549346 C 3.299597192572195 -0.45330332958567165 3.4465424219331973 -0.646203459090624 3.4465424219331973 -0.646203459090624 L 3.450942359181022 -0.6487746158362668 C 3.4685511615411446 -0.6178845214132656 3.4792794035960264 -0.586885786564391 3.480248114060054 -0.5553529029549793" fill="#e9e9e9" transform="matrix(1,0,0,1,0,0)" fill-rule="nonzero"></path></g><g clip-path="url(#be952b66b-44d6-49d1-b2bf-8fe40be0b0c8e1bea3a8-f1c7-4de6-8046-f51cab3ce3c2)"><path d=" M 3.5275066993144706 -4.227842912508384 C 3.6146996944457515 -4.206404535136265 3.70117747344004 -4.140179142198324 3.6741622208731473 -4.095618460853068 C 3.6507230489912157 -4.057023949561961 3.572764490059074 -4.077104321610676 3.487300688372926 -4.103902293325824 C 3.4017372996297284 -4.130609731352745 3.3489833194999425 -4.178357198523587 3.379674239808845 -4.223298121359396 C 3.396839427096656 -4.248403113104702 3.4446050010051428 -4.248222045728248 3.5275066993144706 -4.227842912508384" fill="#393536" transform="matrix(1,0,0,1,0,0)" fill-rule="nonzero"></path></g><g clip-path="url(#be952b66b-44d6-49d1-b2bf-8fe40be0b0c8e1bea3a8-f1c7-4de6-8046-f51cab3ce3c2)"><path d=" M 2.966197832307992 -0.44730999942505445 C 2.870856805236295 -0.4626464062106832 2.7453590066162334 -0.5056770682249061 2.6374971704627628 -0.6469548887029068 C 2.4857717623633824 -0.8457668680490729 2.611206187401685 -1.247636856719244 2.6181772813951527 -1.2696999165401275 C 2.7986380821377352 -1.2765623701077229 2.97111381157871 -1.302961993594673 3.1367270874520896 -1.3824686785954934 C 2.9289160594961747 -1.0525277052215563 3.335638653855305 -0.8526293216166687 3.4509423591810227 -0.6487746158362668 L 3.4465333685643746 -0.646203459090624 C 3.4465333685643746 -0.646203459090624 3.3277984364548594 -0.415958183192096 3.0721584610086987 -0.4368080915907395 C 3.0457678908905716 -0.43897184673936174 3.0090021601016477 -0.44032985206276454 2.966197832307992 -0.44730999942505445" fill="#ffffff" transform="matrix(1,0,0,1,0,0)" fill-rule="nonzero"></path></g><g clip-path="url(#be952b66b-44d6-49d1-b2bf-8fe40be0b0c8e1bea3a8-f1c7-4de6-8046-f51cab3ce3c2)"><path d=" M 3.5011342359339888 -3.3122214032572996 C 3.657775623304087 -3.0662594790825897 3.3962328513855358 -2.3366575390312168 3.3903028948066773 -2.320216621249221 C 3.390194254380805 -2.3200174471351214 3.390185201011982 -2.319908806709249 3.390185201011982 -2.319908806709249 L 3.2197283728184667 -2.3299670994712525 C 3.0742588425755617 -2.3740751123753743 3.084371455550501 -2.481973162004136 3.110762025668628 -2.575856596695381 C 3.1441599032555136 -2.6943289811090385 3.2282566462494358 -2.7422031954433974 3.347471406906554 -3.0407289790026173 C 3.4099215450454357 -3.1968633777186453 3.3438047925333665 -3.2925574861744273 3.2666248233199755 -3.348217597696295 C 3.33761228825865 -3.324805585920832 3.4156523275101955 -3.3111893192115134 3.5011342359339888 -3.3122214032572996" fill="#ec008c" transform="matrix(1,0,0,1,0,0)" fill-rule="nonzero"></path></g><g clip-path="url(#be952b66b-44d6-49d1-b2bf-8fe40be0b0c8e1bea3a8-f1c7-4de6-8046-f51cab3ce3c2)"><path d=" M 3.3903028948066773 -2.320216621249221 L 3.41256512874166 -2.338223771837541 C 3.309990459980637 -2.109155433885962 3.2447247241379 -2.060484523095207 3.2447247241379 -2.060484523095207 L 3.244090988320312 -2.180061418505232 L 3.255996168322143 -2.1811749828704223 C 3.258540164961318 -2.1437845696327327 3.261020788018733 -2.1102327847758615 3.261020788018733 -2.1102327847758615 L 3.390185201011982 -2.319917860078072 C 3.390185201011982 -2.319917860078072 3.390185201011982 -2.3200174471351214 3.3903028948066773 -2.320216621249221" fill="#e9e9e9" transform="matrix(1,0,0,1,0,0)" fill-rule="nonzero"></path></g><g clip-path="url(#be952b66b-44d6-49d1-b2bf-8fe40be0b0c8e1bea3a8-f1c7-4de6-8046-f51cab3ce3c2)"><path d=" M 3.2197283728184662 -2.3299670994712525 L 3.390185201011982 -2.319917860078072 L 3.261020788018733 -2.1102327847758615 C 3.261020788018733 -2.1102327847758615 3.2585401649613175 -2.1437755162639096 3.255996168322143 -2.1811749828704223 C 3.253026663348302 -2.2234542152723615 3.249930411210944 -2.2705951067320833 3.2499394645797666 -2.2793044475395066 C 3.250093371849752 -2.2955914580515167 3.187389739383835 -2.11457840181075 3.187389739383835 -2.11457840181075 C 3.187389739383835 -2.11457840181075 3.183333830151272 -2.2757374202233684 3.17456111576209 -2.276262515615084 C 3.167146406696311 -2.279222967220102 3.0839097337405437 -2.12068037239724 3.0839097337405437 -2.12068037239724 L 3.0713436578146567 -2.300661344592221 L 3.0398379343117123 -2.236635920278191 L 2.9855720415885374 -2.1264745284437585 L 2.9483989092025924 -2.307913093019191 L 2.834987357960816 -2.135355883258813 L 2.844882690084011 -2.3031872344937496 L 2.6693921888250816 -2.1831757773802356 L 2.765050083805573 -2.356783177924046 Z" fill="#bf1b2c" transform="matrix(1,0,0,1,0,0)" fill-rule="nonzero"></path></g><g clip-path="url(#be952b66b-44d6-49d1-b2bf-8fe40be0b0c8e1bea3a8-f1c7-4de6-8046-f51cab3ce3c2)"><path d=" M 3.266624823319975 -3.3482175976962956 C 3.343804792533366 -3.2925484328056047 3.4261180218692195 -3.1895844691852067 3.3636678837303373 -3.0334500704691787 C 3.2444440697043966 -2.734924286909959 3.167173566802779 -2.699317387330338 3.1337756892158937 -2.5808450029166807 C 3.1073851190977666 -2.4869615682254356 3.0742588425755613 -2.374066059006552 3.2197283728184662 -2.32995804610243 L 2.7552362320017822 -2.347548741724907 C 2.7552362320017822 -2.347548741724907 2.99936937567431 -2.712281811484423 3.1343460514517227 -2.9758706447569008 C 3.2694313676550073 -3.239550011717606 3.158971214649426 -3.3934301215967855 3.158971214649426 -3.3934301215967855 C 3.1936461418639666 -3.375627170977122 3.229636381018384 -3.360511936401631 3.2666248233199777 -3.3482175976962947" fill="#bf1b2c" transform="matrix(1,0,0,1,0,0)" fill-rule="nonzero"></path></g><g clip-path="url(#be952b66b-44d6-49d1-b2bf-8fe40be0b0c8e1bea3a8-f1c7-4de6-8046-f51cab3ce3c2)"><path d=" M 3.395110233651523 -4.349719363599371 C 3.4027255493489887 -4.3487596233502215 3.409213212538084 -4.343727381898269 3.412036798344251 -4.3365900506243875 C 3.4148603841504186 -4.329452719350507 3.4135714013006986 -4.321343974016053 3.4086737921342065 -4.315434019788634 C 3.4037761829677144 -4.309524065561213 3.396047871415341 -4.306751624716878 3.3885103277797852 -4.308200614178537 C 3.3829988480049753 -4.309076080127635 3.378063746112777 -4.312112537704806 3.3747977975694075 -4.316637626659538 C 3.3715318490260375 -4.3211627156142685 3.370204531898235 -4.326803064410804 3.3711097529025844 -4.3323097353533475 C 3.371970642484301 -4.337807464435401 3.3749871151501027 -4.342735396488495 3.379491546224087 -4.346002850639861 C 3.383995977298072 -4.349270304791228 3.389616891808061 -4.350607818056521 3.395110233651523 -4.349719363599371" fill="#231f20" transform="matrix(1,0,0,1,0,0)" fill-rule="nonzero"></path></g><g clip-path="url(#be952b66b-44d6-49d1-b2bf-8fe40be0b0c8e1bea3a8-f1c7-4de6-8046-f51cab3ce3c2)"><path d=" M 3.255996168322143 -2.1811749828704223 L 3.244090988320312 -2.180052365136409 L 3.1829264285542513 -2.0388288648713435 L 3.1532223254470213 -2.1890514137461583 L 3.0801797457855975 -2.0557133977256514 L 3.0506657634236443 -2.2313396995169206 L 3.039837934311713 -2.2366268669093685 L 3.0713527111834797 -2.300661344592221 L 3.083909733740544 -2.12068037239724 C 3.083909733740544 -2.12068037239724 3.167146406696311 -2.279222967220102 3.1745611157620903 -2.276253462246262 C 3.1833338301512724 -2.2757374202233684 3.187389739383835 -2.1145784018107503 3.187389739383835 -2.1145784018107503 C 3.187389739383835 -2.1145784018107503 3.2500933718497524 -2.295591458051517 3.249939464579767 -2.2793044475395066 C 3.249930411210944 -2.2705951067320833 3.2530266633483023 -2.223454215272362 3.255996168322143 -2.1811749828704223" fill="#e9e9e9" transform="matrix(1,0,0,1,0,0)" fill-rule="nonzero"></path></g><g clip-path="url(#be952b66b-44d6-49d1-b2bf-8fe40be0b0c8e1bea3a8-f1c7-4de6-8046-f51cab3ce3c2)"><path d=" M 3.324566383785161 -4.440624239947953 C 3.3088950023530925 -4.435771634258993 3.276502048705525 -4.412042754574736 3.2609212009616844 -4.405270834695367 C 3.268200109495123 -4.40858436768447 3.249360048975115 -4.458033868193976 3.209688186794109 -4.446101528085677 C 3.1888654385019333 -4.439737009803329 3.175013784203225 -4.43674034472302 3.1909296065935053 -4.3667759104613095 C 3.1764713765836774 -4.356699510961661 3.146604312837639 -4.316620247183634 3.128633375724609 -4.330924569923477 L 3.1260893790854345 -4.334111355749062 C 3.06879060780666 -4.467748132940717 3.233009664881346 -4.582046914327117 3.324566383785161 -4.440624239947953" fill="#ffffff" transform="matrix(1,0,0,1,0,0)" fill-rule="nonzero"></path></g><g clip-path="url(#be952b66b-44d6-49d1-b2bf-8fe40be0b0c8e1bea3a8-f1c7-4de6-8046-f51cab3ce3c2)"><path d=" M 3.1990323716898077 -4.465828818750308 C 3.2387042338708145 -4.477761158858607 3.284966948554735 -4.426446664371627 3.2776880400212964 -4.423133131382524 C 3.2414474046240875 -4.407561337007506 3.205731864618595 -4.387200310525287 3.1712204226665195 -4.363118349456945 C 3.1553046002762386 -4.433091837087479 3.178209623397632 -4.45946430046796 3.1990323716898077 -4.465828818750308" fill="#e9e9e9" transform="matrix(1,0,0,1,0,0)" fill-rule="nonzero"></path></g><g clip-path="url(#be952b66b-44d6-49d1-b2bf-8fe40be0b0c8e1bea3a8-f1c7-4de6-8046-f51cab3ce3c2)"><path d=" M 3.266624823319975 -3.3482175976962956 C 3.229636381018382 -3.360511936401632 3.193646141863964 -3.375627170977123 3.1589712146494233 -3.3934301215967864 C 3.1446409305219745 -3.4006907986827413 3.130546675016418 -3.4084082187924682 3.1167100889851302 -3.4165705323075697 C 3.102873502953843 -3.4247328458226702 3.196243934092421 -3.3990251035292047 3.266624823319975 -3.3482175976962956" fill="#bf1b2c" transform="matrix(1,0,0,1,0,0)" fill-rule="nonzero"></path></g><g clip-path="url(#be952b66b-44d6-49d1-b2bf-8fe40be0b0c8e1bea3a8-f1c7-4de6-8046-f51cab3ce3c2)"><path d=" M 3.158971214649426 -3.393439174965608 C 3.158971214649426 -3.393439174965608 3.2694313676550073 -3.2395590650864285 3.1343460514517227 -2.975879698125724 C 2.9993693756743096 -2.712290864853246 2.765050083805573 -2.3567831779240462 2.765050083805573 -2.3567831779240462 L 2.6693921888250816 -2.1831848307490587 L 2.676001148065642 -2.17165989223778 L 2.6106267717970324 -2.1341155717301046 L 2.828305971769674 -2.4923211625684654 L 3.0207534328334917 -2.80879977650307 C 3.1597588577369997 -3.0395610944244913 3.19914101211568 -3.182169760119428 3.1562733107402656 -3.3476472354604665 C 2.850278497902331 -3.1927259881666785 2.724047376407632 -3.0000702996199387 2.7248350194952056 -2.829894125859926 C 2.7255773957386658 -2.6655845350970133 2.8024133369367945 -2.5114599842596217 2.80475815946187 -2.5066616987835983 L 2.771414602087921 -2.521183302375185 L 2.775262283837562 -2.5299650701331897 L 2.713400614672154 -2.6531361529658213 C 2.713400614672154 -2.6531361529658213 2.635460162477658 -2.8966989344025196 2.78422511897202 -3.116053007607358 C 2.8925215168289795 -3.2757544336395235 3.158971214649426 -3.393439174965608 3.158971214649426 -3.393439174965608" fill="#e9e9e9" transform="matrix(1,0,0,1,0,0)" fill-rule="nonzero"></path></g><g clip-path="url(#be952b66b-44d6-49d1-b2bf-8fe40be0b0c8e1bea3a8-f1c7-4de6-8046-f51cab3ce3c2)"><path d=" M 3.16050123398046 -3.3626034007555425 C 3.2119243688933117 -3.165855589500949 3.1724516808264047 -3.036745496720636 3.0334462559228967 -2.805984178799214 L 2.8283059717696744 -2.4923121091996423 L 2.804848693150097 -2.506553058357726 L 2.80475815946187 -2.5066526454147753 C 2.802413336936795 -2.5114509308907986 2.7255773957386658 -2.6655754817281907 2.7248350194952056 -2.8298850724911033 C 2.7240473764076323 -3.0000702996199387 2.8545154745113477 -3.207682153461754 3.16050123398046 -3.3626034007555425" fill="#ffffff" transform="matrix(1,0,0,1,0,0)" fill-rule="nonzero"></path></g><g clip-path="url(#be952b66b-44d6-49d1-b2bf-8fe40be0b0c8e1bea3a8-f1c7-4de6-8046-f51cab3ce3c2)"><path d=" M 3.1167100889851325 -3.4165705323075684 C 3.1305456007344263 -3.4084063293970805 3.1446399173695947 -3.400688875815356 3.158971214649425 -3.3934301215967855 C 3.1733025119292555 -3.386171367378216 2.9063097975459296 -3.275971714491268 2.7980043463201474 -3.116279341827925 C 2.649248443194608 -2.896916215254264 2.713400614672155 -2.6531361529658213 2.713400614672155 -2.6531361529658213 L 2.345363065292358 -2.6748370780337978 C 2.457724425750704 -2.7387538619219547 2.582932516568439 -2.6879282493514 2.5925109807828397 -2.850309472555081 C 2.6020894449972407 -3.0126997491275844 2.6148546950372267 -3.208125768534066 2.816183510916099 -3.332075441085448 C 2.917228160346088 -3.3943354584790537 3.111395761486216 -3.415773835851172 3.1166105019280828 -3.416579585676391 Z" fill="#bf1b2c" transform="matrix(1,0,0,1,0,0)" fill-rule="nonzero"></path></g><g clip-path="url(#be952b66b-44d6-49d1-b2bf-8fe40be0b0c8e1bea3a8-f1c7-4de6-8046-f51cab3ce3c2)"><path d=" M 3.0506657634236443 -2.2313306461480975 L 2.9965447246016326 -2.0498106012532604 L 2.931550589823576 -2.2383560603545014 L 2.8305240471312323 -2.059606346319406 L 2.82050196784452 -2.1333731954866444 L 2.8349873579608165 -2.1353558832588124 L 2.9484079625714155 -2.3079040396503685 L 2.985581094957361 -2.1264745284437585 L 3.0398469876805354 -2.2366268669093685 Z" fill="#e9e9e9" transform="matrix(1,0,0,1,0,0)" fill-rule="nonzero"></path></g><g clip-path="url(#be952b66b-44d6-49d1-b2bf-8fe40be0b0c8e1bea3a8-f1c7-4de6-8046-f51cab3ce3c2)"><path d=" M 2.671836598407207 -0.6572847825295911 C 2.779698434560678 -0.5160069620515895 2.870856805236295 -0.4626464062106832 2.9661978323079916 -0.44730999942505445 C 2.8544399542755077 -0.4372917678385697 2.7420920109228235 -0.435594111311584 2.630082461396981 -0.442231059515529 C 2.6224142580041687 -0.44268372795666266 2.6148546950372267 -0.4431273430289746 2.607204598382058 -0.4437882389530303 C 2.6070959579561857 -0.4436886518959806 2.6070959579561857 -0.4437882389530303 2.6070959579561857 -0.4437882389530303 C 2.392241409056222 -0.6601999672904952 2.27844056295507 -1.0132541912687483 2.392712184235002 -1.2620769799914262 C 2.4618618153026706 -1.2906946788399338 2.5499601473162197 -1.2681789505779166 2.620513050551405 -1.270867801118254 C 2.613541956557938 -1.24880474129737 2.5201021369390038 -0.8561058152445797 2.671836598407207 -0.6572847825295911" fill="#e9e9e9" transform="matrix(1,0,0,1,0,0)" fill-rule="nonzero"></path></g><g clip-path="url(#be952b66b-44d6-49d1-b2bf-8fe40be0b0c8e1bea3a8-f1c7-4de6-8046-f51cab3ce3c2)"><path d=" M 3.1166105019280823 -3.4165795856763905 C 3.111404814855039 -3.415773835851172 2.923230543875528 -3.387907566614947 2.822185894445539 -3.3256475492213413 C 2.620857078566667 -3.201697876669959 2.6211196262625247 -3.0224321206119704 2.6115411620481237 -2.8600508974082897 C 2.6019626978337227 -2.6976606208357863 2.4575795718495406 -2.7170982036980913 2.3452182113911952 -2.6531723664411118 C 2.3452182113911952 -2.6531723664411118 2.305881323856628 -2.926955293007933 2.4743101974338626 -3.2103347905268005 C 2.640729223132461 -3.490491288744792 2.982177028280031 -3.5053750270892863 2.989990085574008 -3.5057190551045485 L 2.9900896726310577 -3.5057190551045485 C 3.0286027036027603 -3.4738964636928102 3.070728028734714 -3.4434771444485883 3.1166105019280823 -3.4165795856763905" fill="#ec008c" transform="matrix(1,0,0,1,0,0)" fill-rule="nonzero"></path></g><g clip-path="url(#be952b66b-44d6-49d1-b2bf-8fe40be0b0c8e1bea3a8-f1c7-4de6-8046-f51cab3ce3c2)"><path d=" M 2.844882690084011 -2.3031872344937496 L 2.834987357960816 -2.135355883258813 L 2.8236706469324595 -2.1060863418550717 L 2.8052651481159403 -2.245806982895571 L 2.642965405231664 -2.152747404767191 L 2.669392188825082 -2.1831757773802356 Z" fill="#e9e9e9" transform="matrix(1,0,0,1,0,0)" fill-rule="nonzero"></path></g><g clip-path="url(#be952b66b-44d6-49d1-b2bf-8fe40be0b0c8e1bea3a8-f1c7-4de6-8046-f51cab3ce3c2)"><path d=" M 2.7134006146721545 -2.6531270995969987 L 2.775262283837562 -2.5299560167643675 L 2.7048904479788303 -2.5997846504937376 L 2.7140705639650333 -2.4792118845132167 L 2.66001289872478 -2.6024372875587845 L 2.5936879187297888 -2.4646450140775165 L 2.5587419150742243 -2.608403457612934 L 2.50768091491428 -2.4805517830989743 L 2.477551303472384 -2.613192689720134 L 2.4315330297466753 -2.4850422540350263 L 2.395047953391254 -2.5957921148429333 L 2.3348249439827526 -2.4962050577933974 L 2.345363065292358 -2.6748280246649747 Z" fill="#bf1b2c" transform="matrix(1,0,0,1,0,0)" fill-rule="nonzero"></path></g><g clip-path="url(#be952b66b-44d6-49d1-b2bf-8fe40be0b0c8e1bea3a8-f1c7-4de6-8046-f51cab3ce3c2)"><path d=" M 2.775262283837562 -2.5299560167643675 L 2.771405548719098 -2.521174249006363 L 2.7284925804995703 -2.5399962027887253 L 2.7249889267651914 -2.4239139077442564 L 2.662022746603416 -2.543916311488948 L 2.576305450590233 -2.4152769938874146 L 2.554459671621094 -2.5357863862861767 L 2.4986184927227724 -2.4195592373405446 L 2.4746542254491244 -2.5332061761717113 L 2.427920735586424 -2.42372378699898 L 2.384174857435209 -2.5348991561415533 C 2.384174857435209 -2.5348991561415533 2.343525231421353 -2.439530968963388 2.319805405105918 -2.401153738524026 C 2.3012188389129453 -2.7860396072828393 2.30292087225161 -2.9899848467514674 2.441555109033388 -3.219551119988295 C 2.6273936108566454 -3.5271031122637315 2.890104267353323 -3.4973446889435653 2.9169112924372937 -3.52460438246867 C 2.874613953297709 -3.5384288766609107 2.7441549085628156 -3.660296274383075 2.689065159276777 -3.7129325607181665 C 2.6736291654340985 -3.7276080715797395 2.6473381823730207 -3.7486209406171915 2.6473381823730207 -3.7486209406171915 C 2.6661691895242057 -3.762581235341772 2.6683329446728274 -3.7742781878606815 2.7194392116768853 -3.778343150462067 L 2.7193396246198356 -3.7784517908879387 C 2.724173290873152 -3.7755118078881775 2.729190043662238 -3.772883984998656 2.7343591634966704 -3.7705844133810253 C 2.791857108889544 -3.707174618146939 2.8751299953206013 -3.6003448660392543 2.989990085574008 -3.5057190551045494 C 2.982177028280031 -3.5053659737204645 2.6489858954987495 -3.4823613635420214 2.4825668698001513 -3.20220486532403 C 2.314137996222917 -2.918834421173985 2.345363065292358 -2.6748370780337978 2.345363065292358 -2.6748370780337978 L 2.3348249439827526 -2.4962141111622196 L 2.395047953391254 -2.5957921148429337 L 2.4315330297466753 -2.4850422540350263 L 2.477551303472384 -2.613201743088957 L 2.50768091491428 -2.4805517830989743 L 2.558741915074224 -2.6084125109817564 L 2.5936879187297883 -2.4646540674463395 L 2.66001289872478 -2.6024372875587845 L 2.7140705639650333 -2.479211884513217 L 2.7048904479788303 -2.5997937038625603 Z" fill="#e9e9e9" transform="matrix(1,0,0,1,0,0)" fill-rule="nonzero"></path></g><g clip-path="url(#be952b66b-44d6-49d1-b2bf-8fe40be0b0c8e1bea3a8-f1c7-4de6-8046-f51cab3ce3c2)"><path d=" M 2.719339624619836 -3.7784608442567613 L 2.7194392116768853 -3.7783522038308894 C 2.701093844500882 -3.7644526705937214 2.6826669025805665 -3.7506611336504125 2.6641593416454317 -3.736978308311113 C 2.6012927485408444 -3.690380618980858 2.533645976697741 -3.6415467475512946 2.463437101477818 -3.5906215479236905 C 2.463437101477818 -3.5906215479236905 2.0063506163580906 -3.7615582046648086 2.0591227032255217 -4.163799381456709 C 2.0849700712142885 -4.361868984559415 2.114239612618029 -4.434431735673236 2.3121009882378134 -4.584029602099285 C 2.676064521647401 -4.620152543701799 2.475622935913152 -3.920969922894648 2.719339624619836 -3.7784608442567613" fill="#ffffff" transform="matrix(1,0,0,1,0,0)" fill-rule="nonzero"></path></g><g clip-path="url(#be952b66b-44d6-49d1-b2bf-8fe40be0b0c8e1bea3a8-f1c7-4de6-8046-f51cab3ce3c2)"><path d=" M 2.463437101477818 -3.5906215479236905 C 2.439119752820085 -3.572922211875341 2.414367842458865 -3.5549512747623107 2.389516345040594 -3.536781163535182 L 2.385632449815662 -3.5413621681594605 C 2.0141636736520683 -3.5958634484720253 1.7597549563657928 -4.411644406346538 2.22503474027005 -4.564564859130512 C 2.257128932746469 -4.575121087177763 2.286054446134948 -4.581512765566579 2.312110041606636 -4.584029602099285 C 2.1369454616253236 -4.421585005313846 2.1029319549584957 -4.3630640292440095 2.0770845869697294 -4.165003479510126 C 2.024312500102298 -3.762762302718226 2.463437101477818 -3.5906215479236905 2.463437101477818 -3.5906215479236905" fill="#e9e9e9" transform="matrix(1,0,0,1,0,0)" fill-rule="nonzero"></path></g><g clip-path="url(#be952b66b-44d6-49d1-b2bf-8fe40be0b0c8e1bea3a8-f1c7-4de6-8046-f51cab3ce3c2)"><path d=" M 1.6938283245989993 -1.5997404769711143 C 1.726813944985739 -1.5682971501908147 1.7614112699736089 -1.5385892017275644 1.7974803442499194 -1.5107368080752988 C 1.5874331341948036 -1.3059224451996907 1.3069145012239045 -1.2138677910106281 1.0594225577181609 -1.2184487956349068 C 1.0244558469582175 -1.2589088850350505 0.9909607254712538 -1.3006177398834047 0.9590025907369394 -1.3434939258138314 C 0.9604058629044534 -1.3432132713803306 0.9618000817031469 -1.3429235635780055 0.9632124072394859 -1.3427334428327282 C 1.235881769441117 -1.299938168407896 1.4826856569163365 -1.4329502631507856 1.6043991473685155 -1.6913515160878654 C 1.632953965119931 -1.6596141681776237 1.6627883691943455 -1.6290518747144729 1.6938283245989996 -1.5997404769711139" fill="#e9e9e9" transform="matrix(1,0,0,1,0,0)" fill-rule="nonzero"></path></g><g clip-path="url(#be952b66b-44d6-49d1-b2bf-8fe40be0b0c8e1bea3a8-f1c7-4de6-8046-f51cab3ce3c2)"><path d=" M 1.4077509231709717 -1.9969570340664244 C 1.447105917443184 -1.8970712158457395 1.5333845223233733 -1.7782548034168197 1.6266523279346756 -1.67447603660238 C 1.5049388374824966 -1.4160747836653003 1.2358817694411168 -1.2999381684078952 0.9632124072394859 -1.3427334428327282 C 0.9618091350719695 -1.3429145102091815 0.9377724408477406 -1.3359072027404233 0.9363691686802244 -1.3361878571739272 C 0.7940683175252592 -1.5267612708914489 0.7042045785912865 -1.7476634701649663 0.6277488788837106 -1.976967195705936 C 0.6421708954182481 -2.0206497002753916 0.654999519039993 -2.0442880462714226 0.654999519039993 -2.0442880462714226 C 0.8295122564660717 -2.1080871363648845 1.1026705005841277 -1.828220345949219 1.4077509231709717 -1.9969570340664244" fill="#ffffff" transform="matrix(1,0,0,1,0,0)" fill-rule="nonzero"></path></g><g clip-path="url(#be952b66b-44d6-49d1-b2bf-8fe40be0b0c8e1bea3a8-f1c7-4de6-8046-f51cab3ce3c2)"><path d=" M 1.059413504349338 -1.2184397422660842 C 0.7158472108972598 -1.2244240190578797 0.43600758058806216 -1.4167356795893573 0.4970634999282506 -1.7517918063481113 C 0.5239972721757389 -1.8995880523784465 0.563506173717937 -1.9809597313567404 0.6136346768891445 -2.0209213013400724 C 0.6181238075843316 -2.0062025613388377 0.6228260175667099 -1.9915496541087703 0.6277398255148925 -1.9769671957059223 C 0.6111087869876153 -1.9265308779947574 0.5923864202623024 -1.84939617562548 0.5890366737979089 -1.751321031169332 C 0.5842655484283539 -1.6104143988130608 0.6894566407791325 -1.387819219569701 0.9590025907369373 -1.3434848724450115 C 0.990954864803094 -1.3006065950909012 1.0244470478479415 -1.2588976389809527 1.059413504349338 -1.218439742266085" fill="#e9e9e9" transform="matrix(1,0,0,1,0,0)" fill-rule="nonzero"></path></g><g clip-path="url(#be952b66b-44d6-49d1-b2bf-8fe40be0b0c8e1bea3a8-f1c7-4de6-8046-f51cab3ce3c2)"><path d=" M 0.9590025907369374 -1.343493925813834 C 0.6894566407791327 -1.3878282729385236 0.5842746017971767 -1.610423452181883 0.5890366737979091 -1.751330084538154 C 0.5923864202623026 -1.8494052289943026 0.6111087869876155 -1.92653993136358 0.6277488788837109 -1.976967195705936 C 0.7036554053359256 -1.749485710735085 0.8154882217981511 -1.5356221451640555 0.9590025907369372 -1.343493925813834" fill="#ffffff" transform="matrix(1,0,0,1,0,0)" fill-rule="nonzero"></path></g><g clip-path="url(#be952b66b-44d6-49d1-b2bf-8fe40be0b0c8e1bea3a8-f1c7-4de6-8046-f51cab3ce3c2)"><path d=" M 0.6549995190399931 -2.044288046271423 C 0.6549995190399931 -2.044288046271423 0.6421708954182482 -2.0206587536442147 0.6277488788837108 -1.9769671957059365 C 0.6228336036044995 -1.9915491714370854 0.6181313867581866 -2.006202100056373 0.6136437302579651 -2.02092130134008 C 0.6260166171877332 -2.030980819887897 0.6399981215036428 -2.0388806146863563 0.6549995190399931 -2.044288046271423" fill="#e9e9e9" transform="matrix(1,0,0,1,0,0)" fill-rule="nonzero"></path></g><g clip-path="url(#be952b66b-44d6-49d1-b2bf-8fe40be0b0c8e1bea3a8-f1c7-4de6-8046-f51cab3ce3c2)"><path d=" M 3.1824194399001806 -4.184124194463637 C 3.261654523836321 -3.8698455491529455 3.5662551178755626 -3.786708463254228 3.8070023016084056 -4.000639568534278 M 3.8824711841143094 -4.992001561355946 L 3.8837114956430168 -4.987375289887554 C 3.9237183324704628 -4.835124786396458 3.76355518462834 -4.822305216143536 3.6663672703168153 -4.74807664516634 C 3.6284246015809414 -4.719142078409039 3.600060397059469 -4.680837274920258 3.597045625241515 -4.621193681116408 C 3.596955091553288 -4.6195821814659705 3.5968464511274156 -4.617871094758483 3.5968555044962387 -4.6162505417392214" fill="none" transform="matrix(1,0,0,1,0,0)" fill-rule="nonzero" stroke-dasharray="none" stroke-miterlimit="4" stroke-linejoin="miter" stroke-linecap="butt" stroke-width="0.015155339409174923" stroke="#231f20"></path></g></g></g><defs><clipPath id="SvgjsClipPath1001"><path d=" M 0.48865116736076075 -5.259130261838094 h 4.806743075434728 v 5.009130261838094 h -4.806743075434728 Z"></path></clipPath><clipPath id="be952b66b-44d6-49d1-b2bf-8fe40be0b0c8e1bea3a8-f1c7-4de6-8046-f51cab3ce3c2"><path d=" M 0.45466657373161623 -5.27901145977271 L 5.304447611618173 -5.27901145977271 L 5.304447611618173 -0.2150096088037765 L 0.45466657373161623 -0.2150096088037765 Z"></path></clipPath></defs></svg>